<svg width="22" height="20" viewBox="0 0 22 20" fill="none" xmlns="http://www.w3.org/2000/svg">
<path d="M1.1 0H20.9C21.1917 0 21.4715 0.117063 21.6778 0.325437C21.8841 0.533811 22 0.816426 22 1.11111V18.8889C22 19.1836 21.8841 19.4662 21.6778 19.6746C21.4715 19.8829 21.1917 20 20.9 20H1.1C0.808262 20 0.528473 19.8829 0.322182 19.6746C0.115892 19.4662 0 19.1836 0 18.8889V1.11111C0 0.816426 0.115892 0.533811 0.322182 0.325437C0.528473 0.117063 0.808262 0 1.1 0V0ZM19.8 4.70889L11.0792 12.5978L2.2 4.68444V17.7778H19.8V4.70889ZM2.7621 2.22222L11.0671 9.62444L19.2522 2.22222H2.7621Z" fill="white"/>
</svg>
